<svg width="17" height="17" viewBox="0 0 17 17" fill="none" xmlns="http://www.w3.org/2000/svg">
<path d="M1.63609 2.52258H15.3639C15.69 2.52258 15.9609 2.40676 16.1765 2.17511C16.3922 1.94346 16.5 1.67141 16.5 1.35895C16.5 1.04649 16.3869 0.774436 16.1607 0.542787C15.9346 0.311136 15.669 0.195312 15.3639 0.195312H1.63609C1.30999 0.195312 1.03912 0.311136 0.823471 0.542787C0.607824 0.774436 0.5 1.04649 0.5 1.35895C0.5 1.67141 0.613084 1.94346 0.839251 2.17511C1.06542 2.40676 1.33103 2.52258 1.63609 2.52258ZM1.63609 9.34279H15.3639C15.69 9.34279 15.9609 9.22696 16.1765 8.99531C16.3922 8.76366 16.5 8.49161 16.5 8.17915C16.5 7.86669 16.3869 7.59464 16.1607 7.36299C15.9346 7.13134 15.669 7.01551 15.3639 7.01551H1.63609C1.30999 7.01551 1.03912 7.13134 0.823471 7.36299C0.607824 7.59464 0.5 7.86669 0.5 8.17915C0.5 8.49161 0.613084 8.76366 0.839251 8.99531C1.06542 9.22696 1.33103 9.34279 1.63609 9.34279ZM1.63609 16.1953H9.2574C9.5835 16.1953 9.85437 16.0795 10.07 15.8478C10.2857 15.6162 10.3935 15.3441 10.3935 15.0317C10.3935 14.7192 10.2804 14.4472 10.0542 14.2155C9.82807 13.9839 9.56246 13.868 9.2574 13.868H1.63609C1.30999 13.868 1.03912 13.9839 0.823471 14.2155C0.607824 14.4472 0.5 14.7192 0.5 15.0317C0.5 15.3441 0.613084 15.6162 0.839251 15.8478C1.06542 16.0795 1.33103 16.1953 1.63609 16.1953Z" fill="#00A6FF"/>
</svg>
