<svg width="28" height="25" viewBox="0 0 28 25" fill="none" xmlns="http://www.w3.org/2000/svg">
<path d="M2.81889 0.0765684C3.93538 0.0218398 5.08244 -0.00355001 6.26007 0.000398573C7.44445 0.00436981 8.59072 0.0379014 9.69886 0.100993C11.0565 0.178316 12.1415 1.17325 12.2341 2.42597C12.3105 3.46017 12.3503 4.52655 12.3535 5.62511C12.3567 6.7265 12.3193 7.79554 12.2414 8.83224C12.1474 10.0814 11.0667 11.0737 9.713 11.1539C8.56582 11.2218 7.41484 11.2538 6.26007 11.2498C5.10046 11.2458 3.93704 11.2056 2.7698 11.1291C1.40933 11.0399 0.332966 10.0308 0.257515 8.77376C0.196922 7.76426 0.166626 6.71471 0.166626 5.62511C0.166626 4.53073 0.197189 3.46784 0.258314 2.43642C0.333849 1.16167 1.4378 0.144268 2.81889 0.0765684ZM2.81889 13.8261C3.93538 13.7714 5.08244 13.746 6.26007 13.7499C7.44445 13.7539 8.59072 13.7874 9.69886 13.8505C11.0565 13.9278 12.1415 14.9228 12.2341 16.1755C12.3105 17.2097 12.3503 18.2761 12.3535 19.3746C12.3567 20.476 12.3193 21.5451 12.2414 22.5817C12.1474 23.8309 11.0667 24.8232 9.713 24.9034C8.56582 24.9713 7.41484 25.0033 6.26007 24.9993C5.10046 24.9953 3.93704 24.9551 2.7698 24.8786C1.40933 24.7894 0.332966 23.7803 0.257515 22.5233C0.196922 21.5138 0.166626 20.4642 0.166626 19.3746C0.166626 18.2802 0.197189 17.2174 0.258314 16.1859C0.333849 14.9112 1.4378 13.8938 2.81889 13.8261ZM17.7142 0.0765684C18.8307 0.0218398 19.9777 -0.00355001 21.1554 0.000398573C22.3398 0.00436981 23.486 0.0379014 24.5942 0.100993C25.9518 0.178316 27.0368 1.17325 27.1294 2.42597C27.2058 3.46017 27.2456 4.52655 27.2488 5.62511C27.252 6.7265 27.2146 7.79554 27.1367 8.83224C27.0427 10.0814 25.962 11.0737 24.6083 11.1539C23.4611 11.2218 22.3102 11.2538 21.1554 11.2498C19.9958 11.2458 18.8323 11.2056 17.6651 11.1291C16.3046 11.0399 15.2283 10.0308 15.1528 8.77376C15.0922 7.76426 15.0619 6.71471 15.0619 5.62511C15.0619 4.53073 15.0925 3.46784 15.1536 2.43642C15.2292 1.16167 16.3331 0.144268 17.7142 0.0765684ZM21.1555 25C17.7901 25 15.0619 22.4817 15.0619 19.3752C15.0619 16.2687 17.7901 13.7504 21.1555 13.7504C24.5208 13.7504 27.249 16.2687 27.249 19.3752C27.249 22.4817 24.5208 25 21.1555 25ZM21.1555 22.5001C23.0251 22.5001 24.5408 21.101 24.5408 19.3752C24.5408 17.6494 23.0251 16.2503 21.1555 16.2503C19.2858 16.2503 17.7702 17.6494 17.7702 19.3752C17.7702 21.101 19.2858 22.5001 21.1555 22.5001Z" fill="#888888"/>
</svg>
