<svg width="28" height="26" viewBox="0 0 28 26" fill="none" xmlns="http://www.w3.org/2000/svg">
<path d="M2.17557 2.91803C1.27748 3.06286 0.649902 3.79198 0.649902 4.60601C0.649902 4.70089 0.660723 4.79578 0.676953 4.89566L3.29007 18.5792L9.96622 1.64955L2.17557 2.91803ZM5.42168 7.1979C5.36758 7.40765 5.25396 7.57744 5.07543 7.71228C4.89689 7.84712 4.66425 7.93701 4.37751 7.98196C4.1557 8.01691 3.97175 8.00693 3.83109 7.947C3.69042 7.88707 3.60386 7.78719 3.57681 7.65235C3.56058 7.55747 3.57681 7.47257 3.63091 7.40265C3.68501 7.33274 3.76075 7.28779 3.85273 7.27281C3.91765 7.26282 3.97716 7.26781 4.03126 7.2828C4.08536 7.30277 4.15029 7.34772 4.23685 7.42263C4.24767 7.43262 4.2639 7.4426 4.27472 7.45759C4.36128 7.53749 4.43161 7.57245 4.49113 7.56246C4.54523 7.55247 4.5831 7.5275 4.59933 7.49254C4.61556 7.45259 4.61015 7.38268 4.59392 7.2778L4.18816 5.08543C4.16111 4.93062 4.107 4.83074 4.04208 4.79079C3.97716 4.74584 3.85814 4.73086 3.6796 4.74584L3.6255 4.45119L5.42168 4.15655L5.47578 4.45119C5.30806 4.49614 5.19986 4.54608 5.15117 4.611C5.10248 4.67093 5.09166 4.7808 5.12412 4.93561L5.38381 6.38387C5.42168 6.59862 5.44873 6.76342 5.44873 6.88328C5.45955 6.99814 5.44873 7.10301 5.42168 7.1979ZM14.2835 5.43002L13.3963 5.13038L14.3268 4.05667L14.2835 5.43002ZM26.5214 5.3601L13.7912 1.08523C13.5856 1.01532 13.3855 0.985352 13.1636 0.985352C12.4116 0.985352 11.6975 1.41484 11.427 2.109L4.59392 19.4232C4.24767 20.3022 4.74541 21.286 5.6976 21.6106L18.4277 25.8855C18.6441 25.9604 18.866 25.9854 19.0878 25.9854C19.856 25.9854 20.5269 25.5459 20.7974 24.8667L27.6304 7.54748C27.7062 7.35271 27.7386 7.16793 27.7386 6.96318C27.7332 6.26901 27.268 5.6148 26.5214 5.3601ZM11.9031 5.99934C12.0004 6.00932 12.0924 5.99434 12.1682 5.95439C12.2439 5.91444 12.3413 5.82954 12.4549 5.69969L14.289 3.60221C14.3106 3.57724 14.3214 3.55727 14.3322 3.54728C14.3376 3.53729 14.3485 3.52231 14.3485 3.51232C14.3593 3.47736 14.3647 3.4424 14.3593 3.40245C14.3539 3.3625 14.3376 3.31755 14.316 3.26761L15.2466 3.58224L15.2033 6.67852C15.2033 6.81336 15.2195 6.91823 15.252 7.00313C15.2844 7.08303 15.3439 7.14296 15.4197 7.17792L15.3115 7.45759L13.6992 6.91324L13.8074 6.63357C13.9211 6.66853 14.013 6.67353 14.078 6.65854C14.1429 6.64356 14.1916 6.59862 14.2186 6.53369C14.224 6.51372 14.2349 6.48875 14.2403 6.45379C14.2457 6.41883 14.2511 6.37888 14.2511 6.32395L14.2998 5.76462L13.1636 5.38507L12.8444 5.80457C12.812 5.84452 12.7903 5.87948 12.7741 5.90944C12.7579 5.93441 12.7471 5.96438 12.7362 5.98435C12.7038 6.06426 12.7038 6.13917 12.7416 6.1991C12.7795 6.25902 12.8444 6.30896 12.9472 6.34392L12.9635 6.34892L12.8553 6.62858L11.7949 6.26901L11.9031 5.99934ZM21.2681 17.0411C20.7379 18.3795 19.0391 19.3134 17.5837 18.8289C15.5874 18.1597 15.4089 16.9462 15.4089 16.9462C14.8787 18.2846 15.4467 19.3233 16.9021 19.8128L16.4801 20.8815L10.6966 18.9288L11.1186 17.8601C12.5685 18.3495 13.7263 17.8901 14.2565 16.5517C14.2565 16.5517 13.2773 17.3757 11.2755 16.7065C9.82556 16.2171 9.17093 14.4941 9.70113 13.1508C10.6587 10.7237 14.646 10.9933 18.0112 8.68611C18.985 12.4516 22.2257 14.609 21.2681 17.0411Z" fill="#888888"/>
</svg>
