<svg width="23" height="19" viewBox="0 0 23 19" fill="none" xmlns="http://www.w3.org/2000/svg">
<path d="M15.8401 0.681641C17.8051 0.681641 19.4138 2.24689 19.4933 4.20064L19.4963 4.35139L19.4948 4.98289L19.8616 4.98364C21.0863 4.98364 22.0898 5.95039 22.1551 7.16314L22.1588 7.28914V13.1541C22.1588 14.4036 21.1801 15.4274 19.9523 15.4941L19.8241 15.4979L19.4933 15.4986C19.4258 17.1486 18.1058 18.4799 16.4641 18.5564L16.3141 18.5601H4.60882C2.58157 18.5601 0.92332 16.9454 0.84382 14.9294L0.84082 14.7771V3.98764C0.84082 2.21389 2.23957 0.761891 3.98782 0.684641L4.13407 0.681641H15.8393H15.8401ZM20.7278 9.95764C20.5321 10.0326 20.3236 10.0799 20.1061 10.0964L19.9411 10.1024H16.3171C15.8018 10.1024 15.3773 10.4984 15.3293 11.0031L15.3248 11.0991V13.0656C15.3248 13.5831 15.7193 14.0091 16.2218 14.0579L16.3171 14.0624H19.8233C20.2906 14.0624 20.6761 13.7046 20.7226 13.2471L20.7271 13.1549V9.95764H20.7278ZM17.6888 10.9964C18.2581 10.9964 18.7201 11.4584 18.7201 12.0284C18.7201 12.5984 18.2581 13.0596 17.6888 13.0596C17.1196 13.0596 16.6576 12.5976 16.6576 12.0284C16.6576 11.4584 17.1196 10.9964 17.6888 10.9964ZM19.8616 6.41914H19.4911L19.4866 8.55214C19.4896 8.58964 19.4918 8.62789 19.4933 8.66614L19.9418 8.66689C20.3468 8.66689 20.6806 8.35789 20.7233 7.96339L20.7278 7.87789V7.29064C20.7278 6.84064 20.3858 6.46939 19.9493 6.42514L19.8608 6.42064L19.8616 6.41914ZM15.8401 2.40439H4.13482C3.30157 2.40439 2.61682 3.05689 2.56132 3.87964L2.55757 3.98764V4.21489C2.55757 5.12239 3.30532 5.55814 4.03507 5.59414L4.13407 5.59639H16.3141C16.7753 5.59639 17.2156 5.69614 17.6123 5.87464L17.7796 5.95564V4.35139C17.7796 3.27814 16.9096 2.40439 15.8401 2.40439Z" fill="#888888"/>
</svg>
