<svg width="25" height="25" viewBox="0 0 25 25" fill="none" xmlns="http://www.w3.org/2000/svg">
<g clip-path="url(#clip0_1_1216)">
<path fill-rule="evenodd" clip-rule="evenodd" d="M18.3534 0.000976562C14.8687 0.000976562 12.0157 2.68786 11.7364 6.10025C11.0411 5.93947 10.3169 5.85449 9.57291 5.85449C4.28845 5.85449 0 10.1429 0 15.4274C0 20.7119 4.28845 24.9993 9.57291 24.9993C14.8574 24.9993 19.1458 20.7109 19.1458 15.4264C19.1458 14.6827 19.0609 13.9587 18.9002 13.2637C22.3132 12.9849 25.0007 10.1326 25.0007 6.64729C24.9997 2.97733 22.0224 0.000976562 18.3534 0.000976562ZM17.0999 9.5134C16.9288 9.29598 16.7485 9.08614 16.5595 8.88448C16.6656 8.87536 16.8019 8.86244 16.973 8.84614C17.1476 8.82798 17.1942 8.80931 17.2403 8.79087L17.2403 8.79086C17.2585 8.78355 17.2767 8.77627 17.3027 8.76907C17.4208 8.73005 17.5115 8.66762 17.5749 8.58275C17.6364 8.4969 17.6676 8.36813 17.6676 8.19741V5.00156H16.416V4.5216H16.7311C17.1418 4.5216 17.5115 4.44453 17.8363 4.29137C18.1641 4.14114 18.3953 3.97725 18.5377 3.80166H19.206C19.1996 3.96291 19.1929 4.14109 19.1854 4.3373L19.1853 4.34047L19.1728 4.6689C19.1611 5.00254 19.1543 5.29812 19.1543 5.56152V8.13302C19.1543 8.26765 19.1845 8.38569 19.244 8.49007C19.3035 8.59445 19.3874 8.67249 19.4986 8.72225C19.5972 8.76322 19.7591 8.80126 19.9845 8.83443C20.0957 8.85224 20.1456 8.86602 20.1809 8.87575C20.2171 8.88574 20.2379 8.89148 20.2937 8.89297V9.5134H17.0999ZM9.57291 7.80556C13.7755 7.80556 17.1948 11.2248 17.1948 15.4274C17.1948 19.63 13.7755 23.0483 9.57291 23.0483C5.37031 23.0483 1.95204 19.629 1.95204 15.4264C1.95204 11.2238 5.37031 7.80556 9.57291 7.80556ZM12.8424 15.5378C12.618 15.1632 12.339 14.8666 12.0073 14.6452C11.6434 14.4062 11.2688 14.2423 10.8854 14.1564C10.504 14.0686 10.1128 14.0257 9.71968 14.0257C9.21143 14.0257 8.76951 14.093 8.39198 14.2316C8.01445 14.3681 7.70715 14.5135 7.46912 14.6627L7.74325 12.4697H12.7643V10.6357H7.26329L6.61846 15.528L7.13159 15.7007C7.35499 15.4305 7.6057 15.2129 7.88275 15.0452C8.1637 14.8793 8.50807 14.7954 8.92267 14.7954C9.45434 14.7954 9.88747 14.9964 10.2211 15.3993C10.5567 15.7983 10.7264 16.3104 10.7264 16.9348C10.7264 17.365 10.6747 17.7493 10.5733 18.0878C10.4699 18.4264 10.3196 18.721 10.1196 18.9688C9.94796 19.1863 9.73919 19.3521 9.49531 19.4643C9.25142 19.5765 9.00364 19.6341 8.75098 19.6341C8.62708 19.6341 8.49441 19.6243 8.35296 19.6038C8.21053 19.5843 8.08664 19.5541 7.98128 19.5141C8.02908 19.3785 8.09054 19.1775 8.16566 18.9161C8.24272 18.6556 8.27979 18.4146 8.27979 18.1932C8.27979 17.8791 8.16663 17.6274 7.94323 17.4381C7.71886 17.2499 7.43205 17.1552 7.08184 17.1552C6.74528 17.1552 6.47798 17.2645 6.27507 17.483C6.07411 17.6996 5.97266 17.963 5.97266 18.28C5.97266 18.8107 6.27605 19.2721 6.8838 19.6614C7.48961 20.0516 8.2476 20.2457 9.15582 20.2457C10.3294 20.2457 11.2942 19.9375 12.0483 19.319C12.8053 18.7015 13.1818 17.9054 13.1818 16.9309C13.1818 16.3768 13.0677 15.9124 12.8424 15.5378Z" fill="#888888"/>
</g>
<defs>
<clipPath id="clip0_1_1216">
<rect width="25" height="25" fill="white"/>
</clipPath>
</defs>
</svg>
