<svg width="21" height="21" viewBox="0 0 21 21" fill="none" xmlns="http://www.w3.org/2000/svg">
<path d="M9.60326 1.43808C9.97008 0.694835 11.0299 0.694834 11.3967 1.43808L13.794 6.29555C13.9397 6.59069 14.2213 6.79526 14.547 6.84259L19.9075 7.62152C20.7277 7.74071 21.0552 8.74868 20.4617 9.32722L16.5828 13.1082C16.3471 13.338 16.2396 13.669 16.2952 13.9934L17.2109 19.3322C17.351 20.1491 16.4936 20.7721 15.76 20.3864L10.9653 17.8657C10.674 17.7126 10.326 17.7126 10.0347 17.8657L5.24005 20.3864C4.50642 20.7721 3.64899 20.1491 3.7891 19.3322L4.70479 13.9934C4.76043 13.669 4.65288 13.338 4.41719 13.1082L0.538273 9.32722C-0.0552442 8.74868 0.272265 7.74071 1.09249 7.62152L6.45302 6.84259C6.77873 6.79526 7.0603 6.59069 7.20596 6.29555L9.60326 1.43808Z" fill="#888888"/>
</svg>
