<svg width="24" height="24" viewBox="0 0 24 24" fill="none" xmlns="http://www.w3.org/2000/svg">
<path fill-rule="evenodd" clip-rule="evenodd" d="M8.53649 13.0242C10.2909 13.0242 11.872 12.3101 13.0144 11.1677C14.1568 10.0253 14.8708 8.43405 14.8708 6.68981C14.8708 4.94557 14.1568 3.35434 13.0144 2.21191C11.872 1.06948 10.2807 0.355469 8.53649 0.355469C6.78205 0.355469 5.20102 1.06948 4.05859 2.21191C2.91616 3.36454 2.20215 4.94557 2.20215 6.68981C2.20215 8.43405 2.91616 10.0253 4.05859 11.1677C5.20102 12.3101 6.79225 13.0242 8.53649 13.0242ZM22.76 10.7601H20.26V8.25C20.26 7.55444 19.7056 7 19.01 7C18.3145 7 17.76 7.55444 17.76 8.25V10.75H15.25C14.5544 10.75 14 11.3044 14 12C14 12.6956 14.5544 13.25 15.25 13.25H17.7499V15.75C17.7499 16.4456 18.3044 17 18.9999 17C19.6955 17 20.2499 16.4456 20.2499 15.75V13.2399H22.7499C23.4454 13.2399 23.9999 12.6855 23.9999 11.9899C24.0099 11.3145 23.4555 10.7601 22.76 10.7601ZM0.9375 19.3566C0.9375 16.827 3.78336 14.2871 8.53667 14.2871C13.1574 14.2871 16.146 16.827 16.1358 19.3566C16.1358 20.6215 12.9942 21.8863 8.53667 21.8863C3.78336 21.8863 0.9375 20.6215 0.9375 19.3566Z" fill="#888888"/>
</svg>
