<svg width="24" height="24" viewBox="0 0 24 24" fill="none" xmlns="http://www.w3.org/2000/svg">
<path fill-rule="evenodd" clip-rule="evenodd" d="M23.3659 11.3299L22.0429 7.60962C21.4891 6.05215 20.1121 4.93705 18.4731 4.71919L14.559 4.19864C13.0265 3.99408 11.4956 4.60526 10.5194 5.811L7.67305 9.32592C6.69682 10.5317 6.41742 12.1565 6.93547 13.6125L8.25845 17.3328C8.81226 18.8903 10.1893 20.0054 11.8283 20.2233L15.7423 20.7438C17.2749 20.9484 18.8057 20.3372 19.782 19.1315L22.6283 15.6165C23.6045 14.4108 23.8839 12.786 23.3659 11.3299ZM12.7845 17.9432C13.3766 17.8642 13.8797 18.102 13.9079 18.4737C13.937 18.8454 13.4805 19.2113 12.8885 19.2903C12.2964 19.3693 11.7933 19.1315 11.7651 18.7598C11.736 18.3881 12.1925 18.0222 12.7845 17.9432ZM10.699 9.73754C11.4017 9.6444 12.0345 10.4186 12.111 11.468C12.1875 12.5174 11.6794 13.4437 10.9768 13.5368C10.2741 13.63 9.64131 12.8558 9.56481 11.8064C9.4883 10.757 9.99637 9.83067 10.699 9.73754ZM16.6196 16.4971C17.2117 16.4181 17.7147 16.656 17.743 17.0277C17.7721 17.3994 17.3156 17.7652 16.7235 17.8442C16.1315 17.9232 15.6284 17.6854 15.6001 17.3137C15.571 16.942 16.0275 16.5761 16.6196 16.4971ZM20.1187 15.2116C20.7108 15.1326 21.2139 15.3704 21.2421 15.7421C21.2712 16.1138 20.8147 16.4797 20.2227 16.5587C19.6306 16.6377 19.1275 16.3998 19.0993 16.0281C19.0702 15.6564 19.5267 15.2906 20.1187 15.2116ZM19.4909 9.72091C19.8227 9.31096 20.5877 9.37997 21.1989 9.87557C21.8101 10.3703 22.0371 11.1038 21.7053 11.5137C21.3735 11.9237 20.6085 11.8546 19.9973 11.359C19.3861 10.8643 19.1591 10.1309 19.4909 9.72091ZM14.7761 5.90247C15.1079 5.49252 15.8729 5.56154 16.4841 6.05714C17.0952 6.5519 17.3223 7.28532 16.9905 7.69527C16.6587 8.10522 15.8937 8.0362 15.2825 7.54061C14.6713 7.04584 14.4443 6.31242 14.7761 5.90247ZM9.41006 5.03957L6.27598 4.60634C4.96381 4.42589 3.64914 4.98303 2.86833 6.05322L1.00235 8.60855C0.272255 9.60889 0.117589 10.9069 0.595725 12.0328L1.98939 15.3158C2.46669 16.4417 3.50778 17.2325 4.73431 17.4021L7.13829 17.7339L5.88682 14.2738C5.19997 12.3729 5.55171 10.2592 6.81732 8.69669L9.73021 5.09861C9.62543 5.0745 9.51816 5.05454 9.41006 5.03957Z" fill="#00A6FF"/>
</svg>
