<svg width="24" height="24" viewBox="0 0 24 24" fill="none" xmlns="http://www.w3.org/2000/svg">
<path fill-rule="evenodd" clip-rule="evenodd" d="M12.0004 21C11.9673 21 11.9343 20.9998 11.9014 20.9995C11.9342 20.9998 11.9671 21 12 21C12.0001 21 12.0003 21 12.0004 21ZM9.30717 20.5902C9.07343 20.517 8.84213 20.4339 8.61357 20.3411C8.60607 20.3381 8.59857 20.335 8.59108 20.332C8.825 20.4278 9.06386 20.514 9.30717 20.5902ZM5.70642 18.4336C5.6829 18.4105 5.65948 18.3874 5.63617 18.364C5.60934 18.3372 5.5827 18.3103 5.55625 18.2832C5.60572 18.3339 5.65578 18.384 5.70642 18.4336ZM3.74228 15.5849C3.71381 15.5192 3.68608 15.4531 3.6591 15.3866C3.22186 14.3086 3 13.169 3 12.0002C3.00003 13.2743 3.2648 14.4865 3.74228 15.5849ZM14.1054 20.7524C14.4816 20.6622 14.8486 20.5484 15.2047 20.4127C14.8444 20.5498 14.4776 20.6631 14.1054 20.7524ZM9.76824 3.27887C9.47018 3.35491 9.17808 3.44583 8.89276 3.55079C9.1807 3.44501 9.47272 3.35433 9.76824 3.27887ZM3.70444 8.50348C3.46361 9.07415 3.27995 9.67484 3.16064 10.2984C3.27074 9.72365 3.43718 9.16052 3.6591 8.61315C3.67399 8.57647 3.6891 8.53991 3.70444 8.50348ZM22 12C22 17.5228 17.5228 22 12 22C6.47715 22 2 17.5228 2 12C2 6.47715 6.47715 2 12 2C17.5228 2 22 6.47715 22 12ZM4.06277 14.8344C4.41645 15.2035 4.81589 15.5169 5.24941 15.789C5.28249 15.8099 5.31656 15.8288 5.35089 15.8462L6.92602 13.3764C6.92502 13.372 6.92428 13.3692 6.92353 13.3642C6.70267 12.2955 6.59174 11.2111 6.59697 10.1187V10.0677L4.56593 8.86586C4.51937 8.92535 4.47691 8.98769 4.43451 9.04992C4.41168 9.08343 4.38888 9.11691 4.36546 9.1499C4.14883 9.45533 3.95732 9.77419 3.78893 10.1062C3.43103 11.6685 3.52256 13.3142 4.06277 14.8344ZM12.3695 20.417C11.9991 20.2941 11.6387 20.1432 11.2883 19.9643C11.2604 19.9501 11.2338 19.9342 11.2077 19.9176L7.803 19.3109C9.20751 20.1168 10.7963 20.4854 12.3695 20.417ZM7.25806 18.6337L11.2759 19.3497C11.338 19.2778 11.3977 19.2055 11.4539 19.1301C11.7922 18.6774 12.1232 18.2198 12.4506 17.7597L10.5643 14.4982C10.5296 14.4945 10.4901 14.4889 10.4442 14.4825C10.4345 14.4811 10.4244 14.4797 10.414 14.4783C9.40524 14.3315 8.40341 14.1442 7.41898 13.8808C7.38754 13.8725 7.35877 13.8654 7.33221 13.8589C7.32157 13.8563 7.31129 13.8537 7.30134 13.8512L5.72769 16.3186C5.78277 16.439 5.85014 16.5536 5.91745 16.6681C5.94588 16.7164 5.9743 16.7648 6.00178 16.8135C6.36516 17.4589 6.78798 18.0628 7.25806 18.6337ZM16.9456 18.8262C17.3011 18.569 17.6406 18.2805 17.9604 17.9604C19.4413 16.4797 20.2546 14.5807 20.4003 12.6405C20.3586 12.6967 20.3046 12.7482 20.2397 12.7942C19.7432 13.1491 19.2085 13.4354 18.6541 13.6878L16.6415 17.4425C16.785 17.8935 16.8867 18.3551 16.9456 18.8262ZM18.094 13.5242C18.0199 13.3779 17.946 13.2337 17.8711 13.0909C17.4662 12.3164 17.0004 11.5797 16.5086 10.8584L12.4936 11.2707C12.2958 11.655 12.0979 12.0395 11.8964 12.4216C11.5997 12.9847 11.3005 13.5475 10.9985 14.1082L12.9385 17.4627C14.0068 17.4577 15.0661 17.3532 16.1169 17.157C16.1271 17.1556 16.1369 17.1535 16.147 17.1512L16.15 17.1505L18.094 13.5242ZM16.5177 10.1462C16.7011 9.69515 16.8843 9.24446 17.0566 8.7895C17.1524 8.53486 17.2345 8.27473 17.3167 8.0145C17.3271 7.98166 17.3374 7.94882 17.3478 7.91599L14.6537 4.87934C14.2841 4.85323 13.9187 4.86492 13.5554 4.88531C13.0738 4.91316 12.5928 4.96328 12.1123 5.01335C12.0006 5.02499 11.8889 5.03662 11.7773 5.04798C11.7009 5.05618 11.6253 5.07285 11.5502 5.09275L10.4613 8.37115C10.5862 8.4962 10.7113 8.62103 10.8363 8.74578C10.8988 8.80812 10.9613 8.87044 11.0237 8.93276C11.0221 8.93453 11.0205 8.9362 11.0189 8.93787C11.0163 8.94065 11.0136 8.94342 11.011 8.94669C11.1323 9.08294 11.2536 9.21909 11.375 9.35522C11.7179 9.73996 12.0606 10.1245 12.4018 10.5109C12.4528 10.5689 12.5013 10.6295 12.5481 10.6912L16.4594 10.2895C16.4788 10.2417 16.4982 10.194 16.5177 10.1462ZM19.686 8.53854C19.2791 7.63195 18.7036 6.78331 17.9604 6.03963C17.1431 5.22258 16.1975 4.60774 15.1887 4.1971C15.1847 4.32743 15.175 4.45676 15.1566 4.58585L17.8084 7.57474C17.9002 7.60633 17.9905 7.63841 18.0786 7.67473C18.6444 7.90703 19.1826 8.19207 19.686 8.53854ZM9.31104 4.04831C9.30827 4.04591 9.30506 4.04313 9.30103 4.04015C9.307 4.02946 9.31347 4.01926 9.31969 4.00956C8.12012 4.40976 6.99342 5.08653 6.04008 6.03963C5.93811 6.14161 5.83912 6.24607 5.74361 6.35153C5.59762 6.60746 5.4638 6.86937 5.34641 7.14047C5.21122 7.45253 5.09168 7.77182 4.97235 8.09054C4.9571 8.13128 4.94185 8.17201 4.92657 8.21271C4.90518 8.26942 4.89449 8.33309 4.8915 8.39577L6.89891 9.58342C7.67441 9.07379 8.49767 8.64872 9.34207 8.26494C9.47399 8.20491 9.6089 8.15157 9.74382 8.09822C9.8185 8.0687 9.89318 8.03917 9.96735 8.00851C9.97232 8.00627 9.9773 8.00478 9.98252 8.00329L10.9998 4.93978C10.48 4.57391 9.92855 4.2655 9.32242 4.05607C9.31875 4.055 9.31546 4.05215 9.31104 4.04831Z" fill="#888888"/>
</svg>
