<svg width="25" height="25" viewBox="0 0 25 25" fill="none" xmlns="http://www.w3.org/2000/svg">
<path d="M21.8712 17.2343V17.2351C22.3842 20.1676 20.3405 22.2961 17.4927 22.7746C14.7417 23.2366 10.259 23.2366 7.50874 22.7746C4.66024 22.2961 2.61649 20.1676 3.13024 17.2351V17.2343C3.56524 14.7458 5.67499 13.1956 8.25049 13.3291C10.1322 13.4266 11.288 13.6711 12.6267 13.6711C13.9805 13.6711 14.8827 13.4258 16.751 13.3291C19.3265 13.1941 21.4362 14.7458 21.8712 17.2343ZM12.1505 2.12109C14.8565 2.12109 17.0502 4.31484 17.0502 7.02084C17.0502 9.72684 14.8565 11.9206 12.1505 11.9206C9.44449 11.9206 7.24999 9.72609 7.24999 7.02084C7.24999 4.31559 9.44374 2.12109 12.1505 2.12109Z" fill="#00A6FF"/>
</svg>
